<?xml version="1.0" encoding="UTF-8" standalone="no"?>
<svg
	width="40px"
	height="40px"
	viewBox="0 0 40 40"
	version="1.1"
	xmlns="http://www.w3.org/2000/svg"
>
	<title>Facebook</title>
	<g class="social__facebook">
		<circle
			class="social__circle"
			fill="#EFF1F4"
			cx="20" cy="20" r="20"
		></circle>
		<path
			class="social__facebook__logo"
			fill="#707B87"
			d="M17.5424231,20.5991108 L17.5424231,31.1530196 L21.8084476,31.1530196 L21.8084476,20.5991108 L25.3519822,20.5991108 L25.8999629,16.4831419 L21.8084476,16.4831419 L21.8084476,13.8377177 C21.8084476,13.1896999 21.9585031,12.6906262 22.2330493,12.341608 C22.5075954,12.0170433 23.0311226,11.8425343 23.829196,11.8425343 L26,11.8425343 L26,8.17450908 C25.2519452,8.05001853 24.2037792,8 22.8321601,8 C21.2349018,8 19.9377547,8.47350871 18.9896258,9.42274917 C18.0170433,10.3697666 17.5424231,11.7169322 17.5424231,13.438681 L17.5424231,16.4831419 L14,16.4831419 L14,20.5991108 L17.5424231,20.5991108"
		></path>
	</g>
</svg>