<?xml version="1.0" encoding="UTF-8" standalone="no"?>
<svg width="40px" height="40px" viewBox="0 0 40 40" version="1.1" xmlns="http://www.w3.org/2000/svg" xmlns:xlink="http://www.w3.org/1999/xlink" xmlns:sketch="http://www.bohemiancoding.com/sketch/ns">
    <!-- Generator: Sketch 3.5.2 (25235) - http://www.bohemiancoding.com/sketch -->
    <title>linkedin</title>
    <desc>Created with Sketch.</desc>
    <defs></defs>
    <g id="Page-1" stroke="none" stroke-width="1" fill="none" fill-rule="evenodd" sketch:type="MSPage">
        <g id="linkedin" sketch:type="MSLayerGroup">
            <path d="M20,40 C31.045695,40 40,31.045695 40,20 C40,8.954305 31.045695,0 20,0 C8.954305,0 0,8.954305 0,20 C0,31.045695 8.954305,40 20,40 Z" id="circle" fill="#EFF1F4" sketch:type="MSShapeGroup"></path>
            <path d="M10.6521965,12.8228269 C11.0717624,13.2423928 11.6554159,13.4521757 12.3543462,13.4521757 L12.3782324,13.4521757 C13.1238966,13.4521757 13.7065116,13.2423928 14.1489251,12.8228269 C14.5923772,12.3793748 14.8021601,11.8663413 14.8021601,11.2141448 C14.8021601,10.5847959 14.568491,10.0489147 14.1489251,9.62934884 C13.7293592,9.20978295 13.1467442,9 12.4239277,9 C11.7011112,9 11.1184962,9.20978295 10.6760827,9.62934884 C10.2326306,10.0489147 10,10.5847959 10,11.2141448 C10,11.8663413 10.2097829,12.3793748 10.6521965,12.8228269 L10.6521965,12.8228269 Z M10.2565168,28.0912867 L14.5456434,28.0912867 L14.5456434,15.2239069 L10.2565168,15.2239069 L10.2565168,28.0912867 Z M21.1891162,28.0912867 L21.1891162,20.9108942 C21.1891162,20.4684806 21.23585,20.1184962 21.3293177,19.8619794 C21.5152145,19.4195659 21.7956174,19.0467338 22.1684495,18.7434832 C22.5173954,18.4402326 22.9836951,18.3000312 23.5434625,18.3000312 C24.2891266,18.3000312 24.8250078,18.5565479 25.1749922,19.0695815 C25.5249766,19.582615 25.7108734,20.3054315 25.7108734,21.2141448 L25.7108734,28.0912867 L30,28.0912867 L30,20.7249974 C30,18.8130647 29.5575865,17.3684702 28.6488732,16.389137 C27.7391214,15.4098037 26.5500052,14.9206564 25.0586769,14.9206564 C24.5227957,14.9206564 24.0097622,14.9902378 23.5663101,15.1304393 C23.1238966,15.2467546 22.7510645,15.4336899 22.4249662,15.6891681 C22.1217157,15.9228373 21.8880465,16.1554679 21.7021498,16.3662893 C21.5152145,16.5750338 21.3293177,16.8087029 21.16523,17.0880673 L21.1891162,17.0880673 L21.1891162,15.2239069 L16.8999896,15.2239069 L16.9228373,15.8532558 L16.9228373,19.6989303 C16.9228373,21.8434936 16.9228373,24.6412919 16.8999896,28.0912867 L21.1891162,28.0912867 L21.1891162,28.0912867 Z" id="ic_linkedin" fill="#707B87" sketch:type="MSShapeGroup"></path>
        </g>
    </g>
</svg>