<?xml version="1.0" encoding="UTF-8" standalone="no"?>
<svg width="192px" height="32px" viewBox="0 0 192 32" version="1.1" xmlns="http://www.w3.org/2000/svg" xmlns:xlink="http://www.w3.org/1999/xlink" xmlns:sketch="http://www.bohemiancoding.com/sketch/ns">
    <!-- Generator: Sketch 3.5.2 (25235) - http://www.bohemiancoding.com/sketch -->
    <title>Logo_Booking.com_rgb</title>
    <desc>Created with Sketch.</desc>
    <defs></defs>
    <g id="Page-1" stroke="none" stroke-width="1" fill="none" fill-rule="evenodd" sketch:type="MSPage">
        <g id="Logo_Booking.com_rgb" sketch:type="MSLayerGroup">
            <path d="M75.1600964,3.03980723 C75.1600964,1.42631325 76.4620723,0.120096386 78.0668916,0.120096386 C79.6767229,0.120096386 80.9833253,1.42631325 80.9833253,3.03980723 C80.9833253,4.65195181 79.6767229,5.96048193 78.0668916,5.96048193 C76.4620723,5.96048193 75.1600964,4.65195181 75.1600964,3.03980723" id="Fill-1" fill="#243C69" sketch:type="MSShapeGroup"></path>
            <path d="M121.107663,22.4595663 C121.107663,20.8472289 122.410988,19.5398554 124.016386,19.5398554 C125.624482,19.5398554 126.931663,20.8472289 126.931663,22.4595663 C126.931663,24.0695904 125.624482,25.3792771 124.016386,25.3792771 C122.410988,25.3792771 121.107663,24.0695904 121.107663,22.4595663" id="Fill-2" fill="#2393C5" sketch:type="MSShapeGroup"></path>
            <path d="M27.3617349,21.1994217 C24.8545542,21.1994217 23.1113253,19.2052048 23.1113253,16.3604819 C23.1113253,13.514988 24.8545542,11.5248193 27.3617349,11.5248193 C29.8843373,11.5248193 31.6489639,13.514988 31.6489639,16.3604819 C31.6489639,19.2501205 29.9219277,21.1994217 27.3617349,21.1994217 L27.3617349,21.1994217 Z M27.3617349,7.27209639 C22.0560964,7.27209639 18.2047229,11.0933976 18.2047229,16.3604819 C18.2047229,21.6266024 22.0560964,25.4500241 27.3617349,25.4500241 C32.6891566,25.4500241 36.5553735,21.6266024 36.5553735,16.3604819 C36.5553735,11.0933976 32.6891566,7.27209639 27.3617349,7.27209639 L27.3617349,7.27209639 Z" id="Fill-3" fill="#243C69" sketch:type="MSShapeGroup"></path>
            <path d="M69.5182651,16.813494 C69.3121928,16.4283373 69.0783614,16.0975422 68.8248675,15.8388434 L68.6639036,15.6670843 L68.8323855,15.5061205 C69.0783614,15.2474217 69.3251084,14.9438072 69.565494,14.5904578 L74.2465542,7.62949398 L68.5640482,7.62949398 L65.0465542,13.0725783 C64.8458795,13.3646265 64.4445301,13.514988 63.8411566,13.514988 L63.0394217,13.514988 L63.0394217,3.22004819 C63.0394217,1.16028916 61.7565301,0.880963855 60.3720482,0.880963855 L57.9986506,0.880963855 L58.0030843,25.1816867 L63.0394217,25.1816867 L63.0394217,17.8933976 L63.5126747,17.8933976 C64.0869398,17.8933976 64.4786506,17.9600964 64.6579277,18.2691084 L67.435759,23.515759 C68.2120482,24.9368675 68.9839036,25.1816867 70.4402892,25.1816867 L74.3013012,25.1816867 L71.4257349,20.4289157 L69.5182651,16.813494" id="Fill-4" fill="#243C69" sketch:type="MSShapeGroup"></path>
            <path d="M93.9712771,7.23238554 C91.4101205,7.23238554 89.7754217,8.37243373 88.8586024,9.33185542 L88.5526747,9.64318072 L88.4443373,9.21927711 C88.176,8.192 87.269012,7.6219759 85.9047711,7.6219759 L83.6462651,7.6219759 L83.6591807,25.173012 L88.6623614,25.173012 L88.6623614,17.0839518 C88.6623614,16.2960964 88.7664578,15.6069398 88.9746506,14.9812048 C89.5315663,13.0878072 91.0849157,11.9070843 93.0266988,11.9070843 C94.5885301,11.9070843 95.1971084,12.7313735 95.1971084,14.8641928 L95.1971084,22.5067952 C95.1971084,24.3271325 96.038747,25.173012 97.860241,25.173012 L100.238651,25.173012 L100.228048,14.0098313 C100.228048,9.57879518 98.0661205,7.23238554 93.9712771,7.23238554" id="Fill-5" fill="#243C69" sketch:type="MSShapeGroup"></path>
            <path d="M78.1324337,7.62949398 L75.7611566,7.62949398 L75.7761928,21.1994217 L75.7740723,21.1994217 L75.7740723,25.1774458 L78.3063133,25.1774458 C78.338506,25.1774458 78.362988,25.1816867 78.3942169,25.1816867 L79.5760964,25.1774458 L80.746988,25.1774458 L80.746988,25.173012 L80.7568193,25.173012 L80.7653012,10.2991807 C80.7653012,8.50004819 79.9076627,7.62949398 78.1324337,7.62949398" id="Fill-6" fill="#243C69" sketch:type="MSShapeGroup"></path>
            <path d="M47.0135904,21.1994217 C44.5060241,21.1994217 42.7595181,19.2052048 42.7595181,16.3604819 C42.7595181,13.514988 44.5060241,11.5248193 47.0135904,11.5248193 C49.5306024,11.5248193 51.2963855,13.514988 51.2963855,16.3604819 C51.2963855,19.2501205 49.5735904,21.1994217 47.0135904,21.1994217 L47.0135904,21.1994217 Z M47.0135904,7.27209639 C41.7023614,7.27209639 37.8500241,11.0933976 37.8500241,16.3604819 C37.8500241,21.6266024 41.7023614,25.4500241 47.0135904,25.4500241 C52.3342651,25.4500241 56.2070361,21.6266024 56.2070361,16.3604819 C56.2070361,11.0933976 52.3342651,7.27209639 47.0135904,7.27209639 L47.0135904,7.27209639 Z" id="Fill-7" fill="#243C69" sketch:type="MSShapeGroup"></path>
            <path d="M154.247711,21.1994217 C151.740145,21.1994217 149.992675,19.2052048 149.992675,16.3604819 C149.992675,13.514988 151.740145,11.5248193 154.247711,11.5248193 C156.768,11.5248193 158.536867,13.514988 158.536867,16.3604819 C158.536867,19.2501205 156.808675,21.1994217 154.247711,21.1994217 L154.247711,21.1994217 Z M154.247711,7.27209639 C148.940723,7.27209639 145.087229,11.0933976 145.087229,16.3604819 C145.087229,21.6266024 148.940723,25.4500241 154.247711,25.4500241 C159.57147,25.4500241 163.444627,21.6266024 163.444627,16.3604819 C163.444627,11.0933976 159.57147,7.27209639 154.247711,7.27209639 L154.247711,7.27209639 Z" id="Fill-8" fill="#2393C5" sketch:type="MSShapeGroup"></path>
            <path d="M110.779566,20.4289157 C108.048771,20.4289157 107.07412,18.0393253 107.07412,15.805494 C107.07412,14.8190843 107.318747,11.6075181 110.513157,11.6075181 C112.101976,11.6075181 114.224964,12.0605301 114.224964,15.9708916 C114.224964,19.6559036 112.350843,20.4289157 110.779566,20.4289157 L110.779566,20.4289157 Z M116.820627,7.58457831 C115.871807,7.58457831 115.139663,7.96009639 114.772434,8.65368675 L114.637301,8.92298795 L114.405398,8.72115663 C113.595952,8.02024096 112.149012,7.19363855 109.798554,7.19363855 C105.120771,7.19363855 101.966843,10.7068916 101.966843,15.9365783 C101.966843,21.158747 105.228145,24.8061687 109.890699,24.8061687 C111.483759,24.8061687 112.74159,24.4389398 113.742072,23.6811566 L114.128578,23.3891084 L114.128578,23.8764337 C114.128578,26.2228434 112.612819,27.517494 109.860627,27.517494 C108.527422,27.517494 107.312386,27.1913253 106.498699,26.8969639 C105.438458,26.5748434 104.815807,26.8410602 104.38612,27.9061205 L103.987084,28.8871325 L103.424578,30.3234699 L103.774458,30.5098795 C105.536771,31.4415422 107.821108,32 109.890699,32 C114.150169,32 119.128289,29.8187952 119.128289,23.6811566 L119.143325,7.58457831 L116.820627,7.58457831 L116.820627,7.58457831 Z" id="Fill-9" fill="#243C69" sketch:type="MSShapeGroup"></path>
            <path d="M8.72983133,20.9977831 L4.6573494,20.9933494 L4.6573494,16.1245301 C4.6573494,15.0820241 5.06216867,14.5422651 5.95412048,14.4186988 L8.72983133,14.4186988 C10.7122892,14.4186988 11.9951807,15.6670843 11.9951807,17.6915663 C11.9951807,19.7675181 10.7444819,20.9977831 8.72983133,20.9977831 L8.72983133,20.9977831 Z M4.6573494,7.86255422 L4.6573494,6.5819759 C4.6573494,5.45908434 5.13291566,4.92568675 6.17503614,4.8580241 L8.25754217,4.8580241 C10.043759,4.8580241 11.1159518,5.92828916 11.1159518,7.71971084 C11.1159518,9.08395181 10.3828434,10.6735422 8.32308434,10.6735422 L4.6573494,10.6735422 L4.6573494,7.86255422 L4.6573494,7.86255422 Z M13.9325301,12.7205783 L13.1961446,12.3084337 L13.8369157,11.7611566 C14.585253,11.1159518 15.8388434,9.67344578 15.8388434,7.17455422 C15.8388434,3.35421687 12.8751807,0.889638554 8.29089157,0.889638554 L2.46226506,0.889638554 C1.1013012,0.940144578 0.0150361446,2.04472289 0,3.41320482 L0,25.0914699 L2.4,25.0914699 L2.41195181,25.0914699 L8.39383133,25.0914699 C13.4903133,25.0914699 16.7836145,22.3176867 16.7836145,18.0200482 C16.7836145,15.7046747 15.718747,13.7285783 13.9325301,12.7205783 L13.9325301,12.7205783 Z" id="Fill-10" fill="#243C69" sketch:type="MSShapeGroup"></path>
            <path d="M185.792771,7.29021687 C183.714506,7.29021687 181.70506,8.25966265 180.421205,9.89436145 L180.056096,10.3516145 L179.773301,9.83440964 C178.849735,8.14708434 177.252627,7.29021687 175.03306,7.29021687 C172.709976,7.29021687 171.151614,8.5860241 170.425639,9.35768675 L169.951422,9.87180723 L169.770988,9.19672289 C169.504771,8.22187952 168.639614,7.68963855 167.32588,7.68963855 L165.224289,7.68963855 L165.204819,25.173012 L169.981494,25.173012 L169.981494,17.4554217 C169.981494,16.7759036 170.067277,16.1093012 170.236723,15.4116627 C170.692241,13.5450602 171.945639,11.5398554 174.051855,11.7386024 C175.352675,11.8664096 175.986313,12.8697831 175.986313,14.8082892 L175.986313,25.173012 L180.798843,25.173012 L180.798843,17.4554217 C180.798843,16.6118554 180.874217,15.9784096 181.069494,15.3441928 C181.455807,13.5643373 182.763373,11.7386024 184.796145,11.7386024 C186.269108,11.7386024 186.812337,12.5704096 186.812337,14.8082892 L186.812337,22.6162892 C186.812337,24.3874699 187.6,25.173012 189.364819,25.173012 L191.610217,25.173012 L191.618892,14.0098313 C191.618892,9.54872289 189.652434,7.29021687 185.792771,7.29021687" id="Fill-11" fill="#2393C5" sketch:type="MSShapeGroup"></path>
            <path d="M142.324434,19.1020723 C142.309398,19.1192289 140.250217,21.2875181 137.545446,21.2875181 C135.076627,21.2875181 132.58641,19.776 132.58641,16.3938313 C132.58641,13.4773976 134.518747,11.4378795 137.283855,11.4378795 C138.181012,11.4378795 139.205012,11.7611566 139.361735,12.3041928 L139.385446,12.397494 C139.752482,13.6200482 140.868819,13.6877108 141.087614,13.6877108 L143.702747,13.6877108 L143.702747,11.4016386 C143.702747,8.38303614 139.863904,7.29021687 137.283855,7.29021687 C131.761928,7.29021687 127.749976,11.1383133 127.749976,16.4314217 C127.749976,21.7297349 131.714892,25.5681928 137.180916,25.5681928 C141.927325,25.5681928 144.505639,22.4510843 144.527036,22.4208193 L144.666602,22.249253 L142.594699,18.8077108 L142.324434,19.1020723" id="Fill-12" fill="#2393C5" sketch:type="MSShapeGroup"></path>
        </g>
    </g>
</svg>