<?xml version="1.0" encoding="UTF-8" standalone="no"?>
<svg
	width="40px"
	height="40px"
	viewBox="0 0 40 40"
	version="1.1"
	xmlns="http://www.w3.org/2000/svg"
	xmlns:xlink="http://www.w3.org/1999/xlink"
>
	<title>Twitter</title>
	<g class="social__twitter">
		<circle
			class="social__circle"
			fill="#EFF1F4"
			cx="20" cy="20" r="20"
		></circle>
		<path
			class="social__twitter__logo"
			fill="#707B87"
			d="M16.279777,28.2453117 C17.736442,28.2453117 19.1008616,28.0182463 20.3983781,27.5631019 C21.6725798,27.0846427 22.7643183,26.4703497 23.6746072,25.6969083 C24.5615813,24.9234668 25.3583376,24.0364927 26.0182463,23.0349721 C26.6548403,22.0111505 27.1556006,20.9640142 27.4738976,19.8722757 C27.7932083,18.7805373 27.9523568,17.6877851 27.9523568,16.5727319 L27.9523568,16.0496706 C28.7480993,15.4586923 29.4313229,14.7531678 30,13.9341105 C29.2032438,14.2524075 28.4298023,14.4794729 27.6330461,14.5484034 C28.521034,14.0243284 29.1353269,13.2742017 29.4313229,12.2959959 C28.6345666,12.7734415 27.7698936,13.1150532 26.8373036,13.2965028 C26.0182463,12.4318297 25.0167258,12 23.8337557,12 C22.7187025,12 21.7404967,12.3862139 20.9437405,13.1829701 C20.147998,14.0020274 19.7384693,14.9579321 19.7384693,16.0952864 C19.7384693,16.3912823 19.7840851,16.7095793 19.852002,17.0278763 C18.1682717,16.9599595 16.598074,16.5271161 15.119108,15.7769894 C13.6634567,15.0035479 12.411556,14.0020274 11.3877344,12.7511404 C11.0238216,13.3877344 10.8190573,14.0699442 10.8190573,14.8210846 C10.8190573,15.5032945 11.0015205,16.1632032 11.3198175,16.7774962 C11.6614293,17.3694881 12.093259,17.8469336 12.6619361,18.2341612 C12.0020274,18.2108464 11.3877344,18.0293969 10.7967562,17.7110998 L10.7967562,17.7567157 C10.7967562,18.7572225 11.1150532,19.6218956 11.7293462,20.373036 C12.3659402,21.1241764 13.1393817,21.5783071 14.0952864,21.7830715 C13.7313735,21.8743031 13.3674607,21.9199189 13.0035479,21.9199189 C12.7754688,21.9199189 12.5250887,21.8976178 12.2301064,21.852002 C12.5027876,22.6710593 12.9802331,23.3532691 13.6857577,23.8773441 C14.3912823,24.4227065 15.1880385,24.6953877 16.0750127,24.6953877 C14.5737456,25.8793715 12.8900152,26.4480487 10.9782058,26.4480487 C10.614293,26.4480487 10.2959959,26.4480487 10,26.4024328 C11.8884947,27.6310188 14.0040547,28.2453117 16.279777,28.2453117"
			></path>
	</g>
</svg>